Coordinates
version=1
nRows=8
nColumns=40
inDegrees=yes

Units are S.I. units (second, meters, Newtons, ...)
Angles are in degrees.

endheader
time	pelvis_tilt	pelvis_list	pelvis_rotation	pelvis_tx	pelvis_ty	pelvis_tz	hip_flexion_r	hip_adduction_r	hip_rotation_r	knee_angle_r	knee_angle_r_beta	ankle_angle_r	subtalar_angle_r	mtp_angle_r	hip_flexion_l	hip_adduction_l	hip_rotation_l	knee_angle_l	knee_angle_l_beta	ankle_angle_l	subtalar_angle_l	mtp_angle_l	lumbar_extension	lumbar_bending	lumbar_rotation	arm_flex_r	arm_add_r	arm_rot_r	elbow_flex_r	pro_sup_r	wrist_flex_r	wrist_dev_r	arm_flex_l	arm_add_l	arm_rot_l	elbow_flex_l	pro_sup_l	wrist_flex_l	wrist_dev_l
      1.02000000	     -1.69772450	      8.88433004	     -4.37694705	     -0.13355366	      0.95225170	      1.44100283	     16.74914064	    -19.45085107	    -11.18884562	    -61.31212388	     -1.07009843	     -0.95362165	    -17.95980656	     13.78576562	     10.51552391	    -10.46249217	     12.78551179	    -13.69455067	     -0.23901500	      2.13396001	      8.13243176	      1.52061651	     -2.40053571	     -9.87571414	      1.49211872	      2.94445552	    -11.29293569	     -3.52978999	     25.85735536	     89.95437384	      0.00000000	      0.00000000	      1.25871179	     11.65360189	      4.82378910	     16.75786617	     89.95437384	      0.00000000	      0.00000000
      1.03000000	     -1.77949164	      8.48062438	     -4.10283995	     -0.12489818	      0.95323159	      1.44023362	     17.93410056	    -18.67356890	    -11.06222323	    -60.72188317	     -1.05979679	     -0.09498036	    -18.02908214	     13.93088640	      9.57674596	    -10.21376044	     12.24046422	    -13.04346087	     -0.22765134	      2.39000167	      7.48645948	      1.33497574	     -2.48228095	     -9.37271388	      1.01905565	      2.86384180	    -11.28287905	     -3.28079228	     25.12613062	     89.95437384	      0.00000000	      0.00000000	      2.18620967	     11.67333870	      4.72907312	     17.89382669	     89.95437384	      0.00000000	      0.00000000
      1.04000000	     -1.93236400	      8.23739532	     -3.69066626	     -0.11620896	      0.95387444	      1.43903815	     19.17722183	    -18.32293118	    -11.34193953	    -60.01284496	     -1.04742174	      0.26311727	    -17.84455398	     13.85893977	      8.92137774	    -10.09078407	     12.37007975	    -12.72020973	     -0.22200954	      2.64791841	      7.23469650	      1.22517605	     -2.49075310	     -9.00953118	      0.43926206	      2.55865139	    -11.29354786	     -3.13192929	     24.81978517	     89.95437384	      0.00000000	      0.00000000	      3.20047922	     11.68002162	      4.64707328	     18.82035837	     89.95437384	      0.00000000	      0.00000000
      1.05000000	     -2.10536940	      7.93722878	     -3.26050956	     -0.10763800	      0.95441581	      1.43802594	     20.35508838	    -17.83296845	    -11.56414534	    -59.01978541	     -1.03008958	      0.68772171	    -17.66353400	     13.78997530	      8.27094513	     -9.89945013	     12.12864186	    -12.36513809	     -0.21581237	      2.89293296	      6.83828234	      1.09250386	     -2.47419518	     -8.59876864	     -0.14071096	      2.31208179	    -11.30088455	     -2.99218020	     24.39691874	     89.95437384	      0.00000000	      0.00000000	      4.13372628	     11.71602331	      4.51203337	     19.88571390	     89.95437384	      0.00000000	      0.00000000
      1.06000000	     -2.27841220	      7.62845623	     -2.81554939	     -0.09924510	      0.95479488	      1.43703684	     21.52942723	    -17.39758241	    -11.85091016	    -57.92228101	     -1.01093451	      1.02266571	    -17.36226101	     13.69379415	      7.71409264	     -9.67872595	     11.83530178	    -12.13256834	     -0.21175326	      3.12732835	      6.45422667	      0.95150500	     -2.49492366	     -8.17364328	     -0.74539309	      2.02592644	    -11.31866464	     -2.89852991	     24.07925631	     89.95437384	      0.00000000	      0.00000000	      5.05233056	     11.76770301	      4.37663727	     21.04520305	     89.95437384	      0.00000000	      0.00000000
      1.07000000	     -1.90728193	      6.83593982	     -2.03644543	     -0.09052723	      0.95606792	      1.43613259	     21.64006082	    -16.55474142	    -12.81743504	    -56.39133596	     -0.98421448	      1.38338873	    -17.12283358	     14.47034551	      6.44752489	     -8.96891965	     10.86789647	    -11.84418771	     -0.20672007	      3.40587595	      5.78698927	      0.31494004	     -3.19456921	     -7.25635081	     -1.78295733	      1.93930045	    -11.30762893	     -2.89507347	     23.61986050	     89.95437384	      0.00000000	      0.00000000	      5.83362330	     11.93222536	      3.83878628	     22.57574021	     89.95437384	      0.00000000	      0.00000000
      1.08000000	     -2.22972605	      6.75156202	     -1.68382604	     -0.08214377	      0.95576811	      1.43505676	     23.00332284	    -16.45723264	    -13.04519020	    -55.12521939	     -0.96211658	      1.72289304	    -16.51807819	     14.15437913	      6.20430220	     -8.95501726	     11.01849614	    -11.84459149	     -0.20672712	      3.66898178	      5.54283056	      0.18738596	     -2.97002989	     -7.04419020	     -2.23012887	      1.50638214	    -11.38635108	     -2.86307558	     23.53046423	     89.95437384	      0.00000000	      0.00000000	      6.78883780	     11.95270197	      3.74816493	     23.57776085	     89.95437384	      0.00000000	      0.00000000
      1.09000000	     -2.59104481	      6.54079151	     -1.27249104	     -0.07351739	      0.95538030	      1.43432857	     24.27073678	    -16.15276133	    -13.26647126	    -53.65578391	     -0.93647009	      1.99284248	    -16.19541763	     13.99782358	      5.88600494	     -8.79879989	     10.85420222	    -11.66115883	     -0.20352562	      4.01297969	      5.24284067	      0.02924048	     -2.67702543	     -6.73265070	     -2.73871808	      1.16159327	    -11.40948402	     -3.09686115	     23.31541767	     89.95437384	      0.00000000	      0.00000000	      7.61276970	     12.02683906	      3.58873154	     24.66878965	     89.95437384	      0.00000000	      0.00000000
